<svg width="113" height="24" viewBox="0 0 113 24" fill="none" xmlns="http://www.w3.org/2000/svg">
  <path
    d="M12 2C10.0605 2.00369 8.16393 2.57131 6.54128 3.63374C4.91862 4.69617 3.63994 6.20754 2.86099 7.98377C2.08204 9.76 1.83643 11.7244 2.15408 13.6378C2.47173 15.5511 3.33893 17.3308 4.65005 18.76C5.58647 19.775 6.72299 20.5851 7.98799 21.1392C9.25298 21.6933 10.619 21.9793 12 21.9793C13.3811 21.9793 14.7471 21.6933 16.0121 21.1392C17.2771 20.5851 18.4136 19.775 19.35 18.76C20.6612 17.3308 21.5284 15.5511 21.846 13.6378C22.1637 11.7244 21.9181 9.76 21.1391 7.98377C20.3602 6.20754 19.0815 4.69617 17.4588 3.63374C15.8362 2.57131 13.9396 2.00369 12 2ZM12 20C9.92851 19.9969 7.93896 19.1903 6.45005 17.75C6.90209 16.6495 7.67108 15.7083 8.6593 15.0459C9.64752 14.3835 10.8104 14.0298 12 14.0298C13.1897 14.0298 14.3526 14.3835 15.3408 15.0459C16.329 15.7083 17.098 16.6495 17.55 17.75C16.0611 19.1903 14.0716 19.9969 12 20ZM10 10C10 9.60444 10.1173 9.21776 10.3371 8.88886C10.5569 8.55996 10.8692 8.30362 11.2347 8.15224C11.6001 8.00087 12.0023 7.96126 12.3902 8.03843C12.7782 8.1156 13.1346 8.30608 13.4143 8.58579C13.694 8.86549 13.8844 9.22186 13.9616 9.60982C14.0388 9.99778 13.9992 10.3999 13.8478 10.7654C13.6964 11.1308 13.4401 11.4432 13.1112 11.6629C12.7823 11.8827 12.3956 12 12 12C11.4696 12 10.9609 11.7893 10.5858 11.4142C10.2108 11.0391 10 10.5304 10 10ZM18.91 16C18.0166 14.4718 16.6415 13.283 15 12.62C15.5092 12.0427 15.841 11.3307 15.9555 10.5694C16.0701 9.80822 15.9625 9.03011 15.6458 8.3285C15.3291 7.62688 14.8166 7.03156 14.17 6.61397C13.5233 6.19637 12.7698 5.97425 12 5.97425C11.2303 5.97425 10.4768 6.19637 9.83014 6.61397C9.18346 7.03156 8.67102 7.62688 8.3543 8.3285C8.03758 9.03011 7.93004 9.80822 8.04458 10.5694C8.15912 11.3307 8.49088 12.0427 9.00005 12.62C7.35865 13.283 5.98352 14.4718 5.09005 16C4.37799 14.7871 4.00177 13.4065 4.00005 12C4.00005 9.87827 4.8429 7.84344 6.34319 6.34315C7.84349 4.84285 9.87832 4 12 4C14.1218 4 16.1566 4.84285 17.6569 6.34315C19.1572 7.84344 20 9.87827 20 12C19.9983 13.4065 19.6221 14.7871 18.91 16Z"
    fill="#F06000"/>
  <path
    d="M34.0243 6.4H44.2843V19H42.1243V8.272H36.1843V19H34.0243V6.4ZM47.1643 9.46H49.0003V11.062C49.2883 10.51 49.7143 10.072 50.2783 9.748C50.8543 9.424 51.5023 9.262 52.2223 9.262C53.4703 9.262 54.4543 9.652 55.1743 10.432C55.8943 11.212 56.2543 12.388 56.2543 13.96V14.32C56.2543 15.136 56.1583 15.85 55.9663 16.462C55.7743 17.074 55.4983 17.584 55.1383 17.992C54.7903 18.388 54.3703 18.688 53.8783 18.892C53.3863 19.096 52.8343 19.198 52.2223 19.198C51.5383 19.198 50.9143 19.048 50.3503 18.748C49.7863 18.448 49.3843 18.028 49.1443 17.488V22.6H47.1643V9.46ZM51.7543 17.47C52.4983 17.47 53.0983 17.212 53.5543 16.696C54.0103 16.18 54.2383 15.388 54.2383 14.32V13.96C54.2383 12.952 54.0163 12.208 53.5723 11.728C53.1283 11.236 52.5223 10.99 51.7543 10.99C51.4183 10.99 51.0943 11.044 50.7823 11.152C50.4703 11.26 50.1883 11.422 49.9363 11.638C49.6963 11.842 49.5043 12.106 49.3603 12.43C49.2163 12.742 49.1443 13.102 49.1443 13.51V14.77C49.1443 15.226 49.2163 15.622 49.3603 15.958C49.5043 16.294 49.6963 16.576 49.9363 16.804C50.1763 17.032 50.4523 17.2 50.7643 17.308C51.0763 17.416 51.4063 17.47 51.7543 17.47ZM62.3785 19.198C61.7185 19.198 61.1005 19.096 60.5245 18.892C59.9605 18.676 59.4685 18.364 59.0485 17.956C58.6285 17.548 58.2985 17.044 58.0585 16.444C57.8185 15.832 57.6985 15.124 57.6985 14.32V13.96C57.6985 13.204 57.8185 12.538 58.0585 11.962C58.2985 11.374 58.6285 10.882 59.0485 10.486C59.4685 10.078 59.9605 9.772 60.5245 9.568C61.1005 9.364 61.7185 9.262 62.3785 9.262C63.0385 9.262 63.6505 9.364 64.2145 9.568C64.7905 9.772 65.2885 10.078 65.7085 10.486C66.1285 10.882 66.4585 11.374 66.6985 11.962C66.9385 12.538 67.0585 13.204 67.0585 13.96V14.32C67.0585 15.124 66.9385 15.832 66.6985 16.444C66.4585 17.044 66.1285 17.548 65.7085 17.956C65.2885 18.364 64.7905 18.676 64.2145 18.892C63.6505 19.096 63.0385 19.198 62.3785 19.198ZM62.3785 17.47C62.7265 17.47 63.0565 17.41 63.3685 17.29C63.6925 17.17 63.9745 16.984 64.2145 16.732C64.4665 16.48 64.6645 16.156 64.8085 15.76C64.9645 15.364 65.0425 14.884 65.0425 14.32V13.96C65.0425 13.444 64.9645 13 64.8085 12.628C64.6645 12.256 64.4665 11.95 64.2145 11.71C63.9745 11.47 63.6925 11.29 63.3685 11.17C63.0565 11.05 62.7265 10.99 62.3785 10.99C62.0305 10.99 61.6945 11.05 61.3705 11.17C61.0585 11.29 60.7765 11.47 60.5245 11.71C60.2845 11.95 60.0865 12.256 59.9305 12.628C59.7865 13 59.7145 13.444 59.7145 13.96V14.32C59.7145 14.884 59.7865 15.364 59.9305 15.76C60.0865 16.156 60.2845 16.48 60.5245 16.732C60.7765 16.984 61.0585 17.17 61.3705 17.29C61.6945 17.41 62.0305 17.47 62.3785 17.47ZM73.5315 19.198C71.8755 19.198 70.6215 18.778 69.7695 17.938C68.9175 17.098 68.4915 15.892 68.4915 14.32V13.96C68.4915 12.46 68.9175 11.302 69.7695 10.486C70.6215 9.67 71.8755 9.262 73.5315 9.262V6.4H75.5115V9.262C77.1555 9.262 78.4035 9.67 79.2555 10.486C80.1195 11.302 80.5515 12.46 80.5515 13.96V14.32C80.5515 15.892 80.1195 17.098 79.2555 17.938C78.4035 18.778 77.1555 19.198 75.5115 19.198V22.6H73.5315V19.198ZM78.5355 13.96C78.5355 12.964 78.2895 12.22 77.7975 11.728C77.3175 11.236 76.5435 10.99 75.4755 10.99V17.47C76.5435 17.47 77.3175 17.212 77.7975 16.696C78.2895 16.168 78.5355 15.376 78.5355 14.32V13.96ZM70.5075 14.32C70.5075 15.376 70.7535 16.168 71.2455 16.696C71.7375 17.212 72.5115 17.47 73.5675 17.47V10.99C72.4995 10.99 71.7195 11.236 71.2275 11.728C70.7475 12.22 70.5075 12.958 70.5075 13.942V14.32ZM82.5315 9.46H84.5115V16.21L89.1015 9.46H90.9915V19H89.0115V12.25L84.4215 19H82.5315V9.46ZM93.3378 19.198C93.2418 19.198 93.1338 19.192 93.0138 19.18C92.9058 19.18 92.8038 19.168 92.7078 19.144V17.272C92.7678 17.284 92.8578 17.29 92.9778 17.29C93.2298 17.29 93.4458 17.218 93.6258 17.074C93.8058 16.918 93.9498 16.654 94.0578 16.282C94.1778 15.898 94.2678 15.388 94.3278 14.752C94.3878 14.116 94.4178 13.312 94.4178 12.34V9.46H101.618V19H99.6378V11.152H96.3258V12.7C96.3258 13.984 96.2598 15.046 96.1278 15.886C96.0078 16.714 95.8218 17.374 95.5698 17.866C95.3178 18.358 95.0058 18.706 94.6338 18.91C94.2618 19.102 93.8298 19.198 93.3378 19.198ZM104.315 9.46H106.295V12.808H108.455C109.679 12.808 110.585 13.072 111.173 13.6C111.761 14.116 112.055 14.884 112.055 15.904C112.055 16.864 111.767 17.62 111.191 18.172C110.615 18.724 109.703 19 108.455 19H104.315V9.46ZM108.275 17.308C108.935 17.308 109.397 17.194 109.661 16.966C109.937 16.726 110.075 16.372 110.075 15.904C110.075 15.436 109.937 15.088 109.661 14.86C109.397 14.62 108.935 14.5 108.275 14.5H106.295V17.308H108.275Z"
    fill="#F06000"/>
</svg>
