<svg width="89" height="24" viewBox="0 0 89 24" fill="none" xmlns="http://www.w3.org/2000/svg">
  <path
    d="M21.4899 10.1901L20.4899 9.64008L11.4899 4.64008H11.3799C11.3186 4.61416 11.255 4.59407 11.1899 4.58008H10.9999H10.8199C10.7516 4.59408 10.6846 4.61416 10.6199 4.64008H10.5099L1.50988 9.64008C1.35598 9.7273 1.22797 9.85378 1.13891 10.0066C1.04985 10.1595 1.00293 10.3332 1.00293 10.5101C1.00293 10.687 1.04985 10.8607 1.13891 11.0135C1.22797 11.1664 1.35598 11.2929 1.50988 11.3801L3.99988 12.7601V17.5001C3.99988 18.2957 4.31595 19.0588 4.87856 19.6214C5.44117 20.184 6.20423 20.5001 6.99988 20.5001H14.9999C15.7955 20.5001 16.5586 20.184 17.1212 19.6214C17.6838 19.0588 17.9999 18.2957 17.9999 17.5001V12.7601L19.9999 11.6401V14.5001C19.9999 14.7653 20.1052 15.0196 20.2928 15.2072C20.4803 15.3947 20.7347 15.5001 20.9999 15.5001C21.2651 15.5001 21.5194 15.3947 21.707 15.2072C21.8945 15.0196 21.9999 14.7653 21.9999 14.5001V11.0601C21.9996 10.8829 21.9522 10.7089 21.8626 10.5561C21.773 10.4032 21.6443 10.2769 21.4899 10.1901ZM15.9999 17.5001C15.9999 17.7653 15.8945 18.0196 15.707 18.2072C15.5194 18.3947 15.2651 18.5001 14.9999 18.5001H6.99988C6.73466 18.5001 6.48031 18.3947 6.29277 18.2072C6.10524 18.0196 5.99988 17.7653 5.99988 17.5001V13.8701L10.5099 16.3701L10.6599 16.4301H10.7499C10.8329 16.4405 10.9169 16.4405 10.9999 16.4301C11.0829 16.4405 11.1669 16.4405 11.2499 16.4301H11.3399C11.393 16.4189 11.4437 16.3986 11.4899 16.3701L15.9999 13.8701V17.5001ZM10.9999 14.3601L4.05988 10.5001L10.9999 6.64008L17.9399 10.5001L10.9999 14.3601Z"
    fill="#F06000"/>
  <path
    d="M33.8104 6.4H35.9704V11.674H37.2304L41.8024 6.4H44.2504L38.9404 12.394L44.4304 19H41.8024L37.2304 13.366H35.9704V19H33.8104V6.4ZM46.9511 22.798C46.7711 22.798 46.5911 22.78 46.4111 22.744V21.016C46.5911 21.052 46.7711 21.07 46.9511 21.07C47.1551 21.07 47.3231 21.034 47.4551 20.962C47.5991 20.902 47.7251 20.788 47.8331 20.62C47.9531 20.464 48.0671 20.254 48.1751 19.99C48.2951 19.726 48.4271 19.396 48.5711 19L44.5211 9.46H46.6811L49.5971 16.84L52.2251 9.46H54.2411L50.5511 19C50.2871 19.672 50.0411 20.248 49.8131 20.728C49.5851 21.208 49.3331 21.598 49.0571 21.898C48.7931 22.21 48.4931 22.438 48.1571 22.582C47.8211 22.726 47.4191 22.798 46.9511 22.798ZM55.8625 9.46H57.6985V11.062C57.9865 10.51 58.4125 10.072 58.9765 9.748C59.5525 9.424 60.2005 9.262 60.9205 9.262C62.1685 9.262 63.1525 9.652 63.8725 10.432C64.5925 11.212 64.9525 12.388 64.9525 13.96V14.32C64.9525 15.136 64.8565 15.85 64.6645 16.462C64.4725 17.074 64.1965 17.584 63.8365 17.992C63.4885 18.388 63.0685 18.688 62.5765 18.892C62.0845 19.096 61.5325 19.198 60.9205 19.198C60.2365 19.198 59.6125 19.048 59.0485 18.748C58.4845 18.448 58.0825 18.028 57.8425 17.488V22.6H55.8625V9.46ZM60.4525 17.47C61.1965 17.47 61.7965 17.212 62.2525 16.696C62.7085 16.18 62.9365 15.388 62.9365 14.32V13.96C62.9365 12.952 62.7145 12.208 62.2705 11.728C61.8265 11.236 61.2205 10.99 60.4525 10.99C60.1165 10.99 59.7925 11.044 59.4805 11.152C59.1685 11.26 58.8865 11.422 58.6345 11.638C58.3945 11.842 58.2025 12.106 58.0585 12.43C57.9145 12.742 57.8425 13.102 57.8425 13.51V14.77C57.8425 15.226 57.9145 15.622 58.0585 15.958C58.2025 16.294 58.3945 16.576 58.6345 16.804C58.8745 17.032 59.1505 17.2 59.4625 17.308C59.7745 17.416 60.1045 17.47 60.4525 17.47ZM70.8968 19.198C70.2488 19.198 69.6488 19.102 69.0968 18.91C68.5568 18.706 68.0828 18.4 67.6748 17.992C67.2788 17.584 66.9668 17.074 66.7388 16.462C66.5108 15.85 66.3968 15.136 66.3968 14.32V13.96C66.3968 13.192 66.5168 12.514 66.7568 11.926C66.9968 11.338 67.3208 10.846 67.7288 10.45C68.1488 10.054 68.6288 9.76 69.1688 9.568C69.7208 9.364 70.2968 9.262 70.8968 9.262C71.5208 9.262 72.0728 9.346 72.5528 9.514C73.0448 9.682 73.4588 9.916 73.7948 10.216C74.1428 10.504 74.4188 10.846 74.6228 11.242C74.8268 11.638 74.9648 12.064 75.0368 12.52H73.0208C72.9008 12.076 72.6848 11.71 72.3728 11.422C72.0608 11.134 71.5688 10.99 70.8968 10.99C70.5608 10.99 70.2428 11.05 69.9428 11.17C69.6428 11.278 69.3788 11.452 69.1508 11.692C68.9228 11.932 68.7428 12.244 68.6108 12.628C68.4788 13 68.4128 13.444 68.4128 13.96V14.32C68.4128 14.884 68.4788 15.37 68.6108 15.778C68.7428 16.174 68.9228 16.498 69.1508 16.75C69.3788 17.002 69.6428 17.188 69.9428 17.308C70.2428 17.416 70.5608 17.47 70.8968 17.47C72.0128 17.47 72.7208 16.96 73.0208 15.94H75.0368C74.9408 16.444 74.7728 16.9 74.5328 17.308C74.3048 17.704 74.0108 18.046 73.6508 18.334C73.2908 18.61 72.8768 18.826 72.4088 18.982C71.9408 19.126 71.4368 19.198 70.8968 19.198ZM76.9211 9.46H78.9011V12.808H80.7011C81.9251 12.808 82.8311 13.072 83.4191 13.6C84.0071 14.116 84.3011 14.884 84.3011 15.904C84.3011 16.864 84.0131 17.62 83.4371 18.172C82.8611 18.724 81.9491 19 80.7011 19H76.9211V9.46ZM80.5211 17.308C81.1811 17.308 81.6431 17.194 81.9071 16.966C82.1831 16.726 82.3211 16.372 82.3211 15.904C82.3211 15.436 82.1831 15.088 81.9071 14.86C81.6431 14.62 81.1811 14.5 80.5211 14.5H78.9011V17.308H80.5211ZM85.5611 9.46H87.5411V19H85.5611V9.46Z"
    fill="#F06000"/>
</svg>
